<svg width="32" height="32" viewBox="0 0 32 32" fill="none" xmlns="http://www.w3.org/2000/svg">
  <defs>
    <linearGradient id="faviconGradient" x1="0%" y1="0%" x2="100%" y2="100%">
      <stop offset="0%" stop-color="#6366f1"/>
      <stop offset="50%" stop-color="#8b5cf6"/>
      <stop offset="100%" stop-color="#7c3aed"/>
    </linearGradient>
  </defs>
  
  <!-- Background circle -->
  <circle cx="16" cy="16" r="14" fill="url(#faviconGradient)"/>
  
  <!-- Financial chart icon -->
  <path d="M10 20 L13 17 L16 19 L19 14 L22 16" stroke="white" stroke-width="2" stroke-linecap="round" stroke-linejoin="round" fill="none"/>
  
  <!-- Chart dots -->
  <circle cx="10" cy="20" r="1.5" fill="white"/>
  <circle cx="13" cy="17" r="1.5" fill="white"/>
  <circle cx="16" cy="19" r="1.5" fill="white"/>
  <circle cx="19" cy="14" r="1.5" fill="white"/>
  <circle cx="22" cy="16" r="1.5" fill="white"/>
  
  <!-- Dollar sign overlay -->
  <path d="M16 8 L16 12 M16 20 L16 24 M14 10 C14 9.4 14.4 9 15 9 L17 9 C17.6 9 18 9.4 18 10 C18 10.6 17.6 11 17 11 L15 11 C14.4 11 14 11.4 14 12 C14 12.6 14.4 13 15 13 L17 13 C17.6 13 18 13.4 18 14 C18 14.6 17.6 15 17 15 L15 15 C14.4 15 14 14.6 14 14" stroke="white" stroke-width="1.2" stroke-linecap="round" fill="none" opacity="0.9"/>
</svg>
